<svg width="163" height="43" viewBox="0 0 163 43" fill="none" xmlns="http://www.w3.org/2000/svg">
<path d="M26.546 8.76H8.114V21.944H18.674V19.32H10.738V16.696H21.298V24.568H5.49V6.136H23.922V3.512H2.866V40.376H5.49V27.192H8.114V43H0.242V0.887997H26.546V8.76ZM39.163 43H31.291V0.887997H39.163V3.512H33.915V40.376H36.539V6.136H39.163V43ZM78.6345 43H68.9705L60.4585 31.48L53.6105 43H44.4585L56.8105 22.2L58.6025 24.504L49.0665 40.376H52.0745L60.2665 26.744L70.2505 40.376H73.5145L44.4585 0.887997H54.1225L62.6345 12.408L69.4825 0.887997H78.6345L66.2825 21.688L64.5545 19.448L74.0265 3.512H71.0185L62.9545 17.144L52.8425 3.512H49.6425L78.6345 43ZM110.796 8.76H92.364V21.944H102.924V19.32H94.988V16.696H105.548V24.568H89.74V6.136H108.172V3.512H87.116V40.376H89.74V27.192H92.364V43H84.492V0.887997H110.796V8.76ZM123.413 43H115.541V0.887997H123.413V3.512H118.165V40.376H120.789V6.136H123.413V43ZM162.885 43H153.221L144.708 31.48L137.861 43H128.709L141.061 22.2L142.853 24.504L133.317 40.376H136.325L144.517 26.744L154.501 40.376H157.765L128.709 0.887997H138.373L146.885 12.408L153.733 0.887997H162.885L150.533 21.688L148.805 19.448L158.277 3.512H155.269L147.205 17.144L137.093 3.512H133.893L162.885 43Z" fill="white"/>
</svg>
